<svg xmlns="http://www.w3.org/2000/svg" viewBox="0 0 28 28" width="28" height="28">
  <circle cx="14" cy="14" r="14" fill="#ffffff" />
  <g transform="translate(2, 2)">
    <svg xmlns="http://www.w3.org/2000/svg" width="24" height="24" viewBox="0 0 24 24" fill="none" stroke="#2a1010" stroke-width="2.5" stroke-linecap="round" stroke-linejoin="round">
      <path d="m7.5 4.27 9 5.15"/>
      <path d="M21 8a2 2 0 0 0-1-1.73l-7-4a2 2 0 0 0-2 0l-7 4A2 2 0 0 0 3 8v8a2 2 0 0 0 1 1.73l7 4a2 2 0 0 0 2 0l2-1.14"/>
      <path d="m3.3 7 8.7 5 8.7-5"/>
      <path d="M12 22V12"/>
      <circle cx="18" cy="18" r="6" fill="#ffffff" stroke="none" />
      <circle cx="18" cy="18" r="5"/>
      <path d="m16 18 1.5 1.5 3-3"/>
    </svg>
  </g>
</svg>
